# Blender v2.80 (sub 75) OBJ File: 'desk.blend'
# www.blender.org
o books_books-geometry
v -12.471779 0.024992 0.521080
v -12.471779 0.975784 0.521080
v -10.949843 0.024992 -1.330996
v -10.949843 0.975784 -1.330996
v -10.218255 0.024992 2.372903
v -10.218255 0.975784 2.372903
v -8.696320 0.024992 0.520827
v -8.696320 0.975784 0.520827
v -11.409182 0.993916 -0.497034
v -11.409182 1.280596 -0.497034
v -9.206705 0.993916 -1.443379
v -9.206705 1.280596 -1.443379
v -10.257710 0.993916 2.182841
v -10.257710 1.280596 2.182841
v -8.055235 0.993916 1.236496
v -8.055235 1.280596 1.236496
vt 0.049022 0.009541
vt 0.058558 0.006077
vt 0.058558 0.009541
vt 0.049022 0.006077
vt 0.058558 0.002611
vt 0.049022 0.002611
vt 0.058558 0.000910
vt 0.475519 0.248059
vt 0.017210 0.049860
vt 0.474259 0.051576
vt 0.375000 0.500000
vt 0.125000 0.750000
vt 0.125000 0.500000
vt 0.486465 0.998455
vt 0.004600 0.286874
vt 0.487124 0.286309
vt 0.073426 0.003037
vt 0.076646 0.000808
vt 0.076646 0.003037
vt 0.060165 0.003845
vt 0.069701 0.000577
vt 0.069701 0.003845
vt 0.039865 0.001982
vt 0.036004 0.005843
vt 0.036004 0.001982
vt 0.948858 0.133352
vt 0.534246 0.066522
vt 0.948579 0.065804
vt 0.086902 0.001866
vt 0.082255 0.005725
vt 0.082255 0.001993
vt 0.992615 0.287437
vt 0.512556 0.998617
vt 0.511461 0.287436
vt 0.049022 0.000910
vt 0.016246 0.247586
vt 0.375000 0.750000
vt 0.003705 0.999539
vt 0.073426 0.000808
vt 0.060165 0.000577
vt 0.039865 0.005843
vt 0.534524 0.133550
vt 0.086902 0.005597
vt 0.993002 0.999342
vn -0.7726 0.0000 -0.6349
vn 0.6349 0.0000 -0.7726
vn 0.7726 0.0000 0.6349
vn -0.6349 0.0000 0.7726
vn 0.0000 -1.0000 -0.0000
vn 0.0000 1.0000 -0.0000
vn -0.3948 0.0000 -0.9188
vn 0.9188 0.0000 -0.3948
vn 0.3948 0.0000 0.9188
vn -0.9188 0.0000 0.3948
s off
f 2/1/1 3/2/1 1/3/1
f 4/4/2 7/5/2 3/2/2
f 8/6/3 5/7/3 7/5/3
f 6/8/4 1/9/4 5/10/4
f 7/11/5 1/12/5 3/13/5
f 4/14/6 6/15/6 8/16/6
f 10/17/7 11/18/7 9/19/7
f 12/20/8 15/21/8 11/22/8
f 16/23/9 13/24/9 15/25/9
f 14/26/10 9/27/10 13/28/10
f 15/29/5 9/30/5 11/31/5
f 16/32/6 10/33/6 14/34/6
f 2/1/1 4/4/1 3/2/1
f 4/4/2 8/6/2 7/5/2
f 8/6/3 6/35/3 5/7/3
f 6/8/4 2/36/4 1/9/4
f 7/11/5 5/37/5 1/12/5
f 4/14/6 2/38/6 6/15/6
f 10/17/7 12/39/7 11/18/7
f 12/20/8 16/40/8 15/21/8
f 16/23/9 14/41/9 13/24/9
f 14/26/10 10/42/10 9/27/10
f 15/29/5 13/43/5 9/30/5
f 16/32/6 12/44/6 10/33/6
