# Blender v2.80 (sub 75) OBJ File: 'desk.blend'
# www.blender.org
o desk_desk-geometry
v -19.454536 -0.670490 -9.565048
v -19.454536 0.006667 -9.565048
v 13.095352 -0.670490 -9.708406
v 13.095352 0.006667 -9.708406
v -19.394608 -0.670490 4.042145
v -19.394608 0.006667 4.042145
v 13.155281 -0.670490 3.898786
v 13.155281 0.006667 3.898786
v -3.179592 0.006667 -9.636727
v 13.130198 0.006667 -1.796679
v -3.119662 0.006667 3.970465
v -19.419691 0.006667 -1.653320
v -3.144747 0.006667 -1.724999
v 4.957880 0.006667 -9.672567
v 13.142740 0.006667 1.051053
v -11.257134 0.006667 4.006305
v -19.432234 0.006667 -4.501052
v -11.317064 0.006667 -9.600887
v 13.117655 0.006667 -4.644411
v 5.017810 0.006667 3.934625
v -19.407148 0.006667 1.194412
v -11.282219 0.006667 -1.689160
v 4.992725 0.006667 -1.760839
v -3.132205 0.006667 1.122733
v -3.157289 0.006667 -4.572732
v 4.980184 0.006667 -4.608572
v 5.005267 0.006667 1.086893
v -11.269677 0.006667 1.158573
v -11.294761 0.006667 -4.536892
v 9.026616 0.006667 -9.690487
v 13.149012 0.006667 2.474919
v -15.325871 0.006667 4.024225
v -19.438505 0.006667 -5.924918
v -7.248328 0.006667 -9.618807
v 13.123926 0.006667 -3.220545
v 0.949074 0.006667 3.952545
v -19.413420 0.006667 -0.229454
v -15.350955 0.006667 -1.671240
v 0.923989 0.006667 -1.742919
v -3.125933 0.006667 2.546599
v -3.151018 0.006667 -3.148866
v 0.889144 0.006667 -9.654648
v 13.136469 0.006667 -0.372813
v -7.188398 0.006667 3.988385
v -19.425962 0.006667 -3.077186
v -15.385800 0.006667 -9.582968
v 13.111383 0.006667 -6.068277
v 9.086546 0.006667 3.916706
v -19.400877 0.006667 2.618279
v -7.213483 0.006667 -1.707080
v 9.061461 0.006667 -1.778759
v -3.138476 0.006667 -0.301133
v -3.163560 0.006667 -5.996598
v 0.911447 0.006667 -4.590652
v 9.048920 0.006667 -4.626492
v 4.986454 0.006667 -3.184705
v 4.973912 0.006667 -6.032438
v 0.936532 0.006667 1.104813
v 9.074003 0.006667 1.068973
v 5.011539 0.006667 2.510759
v 4.998997 0.006667 -0.336973
v -15.338413 0.006667 1.176493
v -7.200941 0.006667 1.140653
v -11.263406 0.006667 2.582439
v -11.275948 0.006667 -0.265293
v -15.363497 0.006667 -4.518972
v -7.226025 0.006667 -4.554811
v -11.288490 0.006667 -3.113026
v -11.301032 0.006667 -5.960758
v -7.232296 0.006667 -5.978678
v -7.219754 0.006667 -3.130946
v -15.357226 0.006667 -3.095106
v -7.207212 0.006667 -0.283213
v -7.194670 0.006667 2.564519
v -15.332142 0.006667 2.600358
v 9.067733 0.006667 -0.354893
v 9.080275 0.006667 2.492839
v 0.942802 0.006667 2.528679
v 9.042648 0.006667 -6.050357
v 9.055190 0.006667 -3.202625
v 0.917718 0.006667 -3.166785
v 0.905176 0.006667 -6.014518
v 0.930260 0.006667 -0.319053
v -15.344684 0.006667 -0.247374
v -15.369768 0.006667 -5.942838
vt 0.625000 0.187500
vt 0.625000 0.218750
vt 0.375000 0.250000
vt 0.625000 0.343750
vt 0.625000 0.375000
vt 0.375000 0.500000
vt 0.625000 0.687500
vt 0.625000 0.718750
vt 0.375000 0.750000
vt 0.625000 0.937500
vt 0.625000 0.968750
vt 0.375000 1.000000
vt 0.125000 0.750000
vt 0.125000 0.500000
vt 0.872703 -0.002956
vt 0.994767 0.118575
vt 0.871846 0.120505
vt 0.869276 0.490890
vt 0.991336 0.613555
vt 0.868420 0.614351
vt 0.377606 0.495208
vt 0.499670 0.616739
vt 0.376753 0.617536
vt 0.381016 0.005898
vt 0.503084 0.126296
vt 0.380164 0.128226
vt 0.379311 0.250553
vt 0.501377 0.371518
vt 0.378458 0.372881
vt 0.133472 0.253847
vt 0.255540 0.374244
vt 0.132621 0.375607
vt 0.135173 0.010326
vt 0.257243 0.130156
vt 0.134322 0.132086
vt 0.375901 0.739863
vt 0.497963 0.861961
vt 0.375048 0.862190
vt 0.130069 0.740888
vt 0.252133 0.862420
vt 0.129219 0.862649
vt 0.131771 0.497367
vt 0.253837 0.618332
vt 0.130920 0.619128
vt 0.867563 0.737812
vt 0.989621 0.861045
vt 0.866706 0.861274
vt 0.621732 0.738838
vt 0.743792 0.861503
vt 0.620877 0.861732
vt 0.623441 0.493049
vt 0.745503 0.615147
vt 0.622586 0.615943
vt 0.870990 0.243967
vt 0.993052 0.366065
vt 0.870133 0.367428
vt 0.625150 0.247260
vt 0.747214 0.368791
vt 0.624296 0.370154
vt 0.626860 0.001471
vt 0.748926 0.122435
vt 0.626005 0.124366
vt 0.748070 0.245613
vt 0.502231 0.248907
vt 0.503938 0.003685
vt 0.746359 0.491969
vt 0.500524 0.494128
vt 0.992194 0.489810
vt 0.744647 0.738325
vt 0.498816 0.739350
vt 0.742936 0.984681
vt 0.620023 0.984627
vt 0.497109 0.984572
vt 0.988763 0.984790
vt 0.865850 0.984735
vt 0.252985 0.740376
vt 0.008003 0.619924
vt 0.007154 0.741401
vt 0.008853 0.498447
vt 0.251282 0.984463
vt 0.128368 0.984409
vt 0.006304 0.862878
vt 0.005455 0.984355
vt 0.374195 0.984518
vt 0.256391 0.252200
vt 0.011402 0.134016
vt 0.010552 0.255493
vt 0.012251 0.012539
vt 0.254688 0.496288
vt 0.009703 0.376970
vt 0.258095 0.008112
vt 0.990479 0.737300
vt 0.993909 0.242320
vt 0.749781 -0.000742
vt 0.375000 0.000000
vt 0.625000 0.125000
vt 0.625000 0.000000
vt 0.625000 0.031250
vt 0.625000 0.062500
vt 0.625000 0.093750
vt 0.625000 0.250000
vt 0.625000 0.156250
vt 0.625000 0.281250
vt 0.625000 0.312500
vt 0.625000 0.468750
vt 0.625000 0.500000
vt 0.625000 0.406250
vt 0.625000 0.437500
vt 0.625000 0.625000
vt 0.625000 0.531250
vt 0.625000 0.562500
vt 0.625000 0.593750
vt 0.625000 0.750000
vt 0.625000 0.656250
vt 0.625000 0.906250
vt 0.625000 0.781250
vt 0.625000 0.812500
vt 0.625000 0.843750
vt 0.625000 0.875000
vt 0.625000 1.000000
vt 0.995625 -0.005170
vn -0.0044 0.0000 -1.0000
vn 1.0000 0.0000 -0.0044
vn 0.0044 0.0000 1.0000
vn -1.0000 0.0000 0.0044
vn 0.0000 -1.0000 0.0000
vn 0.0000 1.0000 0.0000
s off
f 14/1/1 30/2/1 3/3/1
f 35/4/2 10/5/2 7/6/2
f 16/7/3 32/8/3 5/9/3
f 17/10/4 33/11/4 1/12/4
f 7/6/5 1/13/5 3/14/5
f 46/15/6 33/16/6 85/17/6
f 38/18/6 37/19/6 84/20/6
f 39/21/6 52/22/6 83/23/6
f 42/24/6 53/25/6 82/26/6
f 54/27/6 41/28/6 81/29/6
f 55/30/6 56/31/6 80/32/6
f 30/33/6 57/34/6 79/35/6
f 58/36/6 40/37/6 78/38/6
f 59/39/6 60/40/6 77/41/6
f 51/42/6 61/43/6 76/44/6
f 62/45/6 49/46/6 75/47/6
f 63/48/6 64/49/6 74/50/6
f 50/51/6 65/52/6 73/53/6
f 66/54/6 45/55/6 72/56/6
f 67/57/6 68/58/6 71/59/6
f 34/60/6 69/61/6 70/62/6
f 70/62/6 29/63/6 67/57/6
f 53/25/6 67/57/6 25/64/6
f 9/65/6 70/62/6 53/25/6
f 71/59/6 22/66/6 50/51/6
f 41/28/6 50/51/6 13/67/6
f 25/64/6 71/59/6 41/28/6
f 72/56/6 12/68/6 38/18/6
f 68/58/6 38/18/6 22/66/6
f 29/63/6 72/56/6 68/58/6
f 73/53/6 28/69/6 63/48/6
f 52/22/6 63/48/6 24/70/6
f 13/67/6 73/53/6 52/22/6
f 74/50/6 16/71/6 44/72/6
f 40/37/6 44/72/6 11/73/6
f 24/70/6 74/50/6 40/37/6
f 75/47/6 6/74/6 32/75/6
f 64/49/6 32/75/6 16/71/6
f 28/69/6 75/47/6 64/49/6
f 76/44/6 27/76/6 59/39/6
f 43/77/6 59/39/6 15/78/6
f 10/79/6 76/44/6 43/77/6
f 77/41/6 20/80/6 48/81/6
f 31/82/6 48/81/6 8/83/6
f 15/78/6 77/41/6 31/82/6
f 78/38/6 11/73/6 36/84/6
f 60/40/6 36/84/6 20/80/6
f 27/76/6 78/38/6 60/40/6
f 79/35/6 26/85/6 55/30/6
f 47/86/6 55/30/6 19/87/6
f 4/88/6 79/35/6 47/86/6
f 80/32/6 23/89/6 51/42/6
f 35/90/6 51/42/6 10/79/6
f 19/87/6 80/32/6 35/90/6
f 81/29/6 13/67/6 39/21/6
f 56/31/6 39/21/6 23/89/6
f 26/85/6 81/29/6 56/31/6
f 82/26/6 25/64/6 54/27/6
f 57/34/6 54/27/6 26/85/6
f 14/91/6 82/26/6 57/34/6
f 83/23/6 24/70/6 58/36/6
f 61/43/6 58/36/6 27/76/6
f 23/89/6 83/23/6 61/43/6
f 84/20/6 21/92/6 62/45/6
f 65/52/6 62/45/6 28/69/6
f 22/66/6 84/20/6 65/52/6
f 85/17/6 17/93/6 66/54/6
f 69/61/6 66/54/6 29/63/6
f 18/94/6 85/17/6 69/61/6
f 3/3/1 1/95/1 9/96/1
f 1/95/1 2/97/1 46/98/1
f 46/98/1 18/99/1 1/95/1
f 18/99/1 34/100/1 1/95/1
f 1/95/1 34/100/1 9/96/1
f 30/2/1 4/101/1 3/3/1
f 9/96/1 42/102/1 3/3/1
f 42/102/1 14/1/1 3/3/1
f 7/6/2 3/3/2 35/4/2
f 3/3/2 4/101/2 47/103/2
f 47/103/2 19/104/2 3/3/2
f 19/104/2 35/4/2 3/3/2
f 31/105/2 8/106/2 7/6/2
f 10/5/2 43/107/2 7/6/2
f 43/107/2 15/108/2 7/6/2
f 15/108/2 31/105/2 7/6/2
f 5/9/3 7/6/3 11/109/3
f 7/6/3 8/106/3 48/110/3
f 48/110/3 20/111/3 7/6/3
f 20/111/3 36/112/3 7/6/3
f 7/6/3 36/112/3 11/109/3
f 32/8/3 6/113/3 5/9/3
f 11/109/3 44/114/3 5/9/3
f 44/114/3 16/7/3 5/9/3
f 1/12/4 5/9/4 45/115/4
f 5/9/4 6/113/4 49/116/4
f 49/116/4 21/117/4 5/9/4
f 21/117/4 37/118/4 5/9/4
f 5/9/4 37/118/4 12/119/4
f 33/11/4 2/120/4 1/12/4
f 12/119/4 45/115/4 5/9/4
f 45/115/4 17/10/4 1/12/4
f 7/6/5 5/9/5 1/13/5
f 46/15/6 2/121/6 33/16/6
f 38/18/6 12/68/6 37/19/6
f 39/21/6 13/67/6 52/22/6
f 42/24/6 9/65/6 53/25/6
f 54/27/6 25/64/6 41/28/6
f 55/30/6 26/85/6 56/31/6
f 30/33/6 14/91/6 57/34/6
f 58/36/6 24/70/6 40/37/6
f 59/39/6 27/76/6 60/40/6
f 51/42/6 23/89/6 61/43/6
f 62/45/6 21/92/6 49/46/6
f 63/48/6 28/69/6 64/49/6
f 50/51/6 22/66/6 65/52/6
f 66/54/6 17/93/6 45/55/6
f 67/57/6 29/63/6 68/58/6
f 34/60/6 18/94/6 69/61/6
f 70/62/6 69/61/6 29/63/6
f 53/25/6 70/62/6 67/57/6
f 9/65/6 34/60/6 70/62/6
f 71/59/6 68/58/6 22/66/6
f 41/28/6 71/59/6 50/51/6
f 25/64/6 67/57/6 71/59/6
f 72/56/6 45/55/6 12/68/6
f 68/58/6 72/56/6 38/18/6
f 29/63/6 66/54/6 72/56/6
f 73/53/6 65/52/6 28/69/6
f 52/22/6 73/53/6 63/48/6
f 13/67/6 50/51/6 73/53/6
f 74/50/6 64/49/6 16/71/6
f 40/37/6 74/50/6 44/72/6
f 24/70/6 63/48/6 74/50/6
f 75/47/6 49/46/6 6/74/6
f 64/49/6 75/47/6 32/75/6
f 28/69/6 62/45/6 75/47/6
f 76/44/6 61/43/6 27/76/6
f 43/77/6 76/44/6 59/39/6
f 10/79/6 51/42/6 76/44/6
f 77/41/6 60/40/6 20/80/6
f 31/82/6 77/41/6 48/81/6
f 15/78/6 59/39/6 77/41/6
f 78/38/6 40/37/6 11/73/6
f 60/40/6 78/38/6 36/84/6
f 27/76/6 58/36/6 78/38/6
f 79/35/6 57/34/6 26/85/6
f 47/86/6 79/35/6 55/30/6
f 4/88/6 30/33/6 79/35/6
f 80/32/6 56/31/6 23/89/6
f 35/90/6 80/32/6 51/42/6
f 19/87/6 55/30/6 80/32/6
f 81/29/6 41/28/6 13/67/6
f 56/31/6 81/29/6 39/21/6
f 26/85/6 54/27/6 81/29/6
f 82/26/6 53/25/6 25/64/6
f 57/34/6 82/26/6 54/27/6
f 14/91/6 42/24/6 82/26/6
f 83/23/6 52/22/6 24/70/6
f 61/43/6 83/23/6 58/36/6
f 23/89/6 39/21/6 83/23/6
f 84/20/6 37/19/6 21/92/6
f 65/52/6 84/20/6 62/45/6
f 22/66/6 38/18/6 84/20/6
f 85/17/6 33/16/6 17/93/6
f 69/61/6 85/17/6 66/54/6
f 18/94/6 46/15/6 85/17/6
