# Blender v2.80 (sub 75) OBJ File: 'desk.blend'
# www.blender.org
o keyboard_keyboard-geometry
v 1.073246 0.251745 1.066406
v 1.073246 0.003707 1.066406
v -6.941237 0.251745 2.600369
v -6.941237 0.003707 2.600369
v 0.489931 0.671022 -1.981239
v 0.489931 0.003707 -1.981239
v -7.524553 0.671022 -0.447276
v -7.524553 0.003707 -0.447276
v -6.832616 0.294369 2.258404
v -1.602413 0.296729 1.239562
v -1.992329 0.564661 -0.704698
v -7.194783 0.567022 0.273258
v -6.807969 0.402085 2.259233
v -1.624982 0.404445 1.249588
v -2.011378 0.672377 -0.677121
v -7.166867 0.674738 0.292007
v -1.839361 0.459548 0.058058
v -0.926832 0.563481 -0.899739
v -0.773747 0.459613 -0.146386
v -0.934553 0.563489 -0.898326
v -0.783257 0.459612 -0.144562
v 0.466824 0.564189 -1.171820
v -0.545226 0.296186 1.041315
v 0.858694 0.296976 0.766649
v -1.679296 0.349560 0.856193
v -0.626440 0.351945 0.636709
v -1.334908 0.349549 0.790360
v -1.407500 0.401727 0.411091
v -1.046570 0.402517 0.336052
v -0.967558 0.351921 0.702179
v -0.652736 0.447047 0.655621
v -0.575967 0.391288 1.038090
v -1.575313 0.391832 1.225490
v -1.647990 0.444663 0.863096
v -1.322443 0.444652 0.800865
v -1.391064 0.496830 0.442347
v -1.049881 0.497620 0.371413
v -0.975192 0.447024 0.717508
v -1.836883 0.557080 0.071001
v -1.989852 0.662192 -0.691755
v -0.780780 0.557144 -0.131618
v -0.932076 0.661021 -0.885382
v -1.822313 0.571313 0.057788
v -1.970474 0.676426 -0.680991
v -0.799409 0.571377 -0.138462
v -0.945949 0.675254 -0.868532
v -0.924693 0.647698 -0.888562
v -0.771607 0.543830 -0.135210
v -0.781118 0.543829 -0.133385
v 0.468963 0.648406 -1.160644
v -0.624300 0.436161 0.647886
v -0.543087 0.380402 1.052492
v 0.860833 0.381193 0.777826
v -0.923927 0.677835 -0.884563
v -0.770842 0.573967 -0.131210
v -0.780353 0.573967 -0.129385
v 0.469729 0.678543 -1.156644
v -0.623535 0.466299 0.651885
v -0.542322 0.410540 1.056491
v 0.861598 0.411330 0.781826
v -0.993975 0.618739 -1.303259
v -0.944481 0.583163 -1.044667
v -2.000188 0.581977 -0.833670
v -2.051209 0.620715 -1.115799
v -2.125825 0.584002 -0.824883
v -3.552067 0.606991 -0.725126
v -3.519465 0.583558 -0.554796
v -2.169561 0.621110 -1.096125
v -3.572259 0.621506 -0.830628
v -3.669633 0.608886 -0.716903
v -4.436065 0.621240 -0.663296
v -3.633846 0.583163 -0.529925
v -5.035994 0.583163 -0.261556
v -5.087687 0.620320 -0.531642
v -3.688291 0.622296 -0.814377
v -5.212337 0.621110 -0.513741
v -5.158994 0.582768 -0.235036
v -6.552522 0.582768 0.031684
v -6.602992 0.621110 -0.247571
v -6.959818 0.619748 -0.169008
v -6.908805 0.582768 0.099876
v -7.245525 0.583163 0.161346
v -7.295446 0.621110 -0.115037
v -0.991589 0.712691 -1.290791
v -0.942095 0.677116 -1.032198
v -1.997802 0.675930 -0.821201
v -2.048822 0.714668 -1.103330
v -2.123439 0.677955 -0.812414
v -3.549680 0.700944 -0.712657
v -3.517079 0.677511 -0.542328
v -2.167174 0.715063 -1.083656
v -3.569873 0.715458 -0.818160
v -3.667247 0.702839 -0.704435
v -4.433679 0.715193 -0.650827
v -3.631459 0.677116 -0.517457
v -5.033607 0.677116 -0.249087
v -5.085301 0.714273 -0.519173
v -3.685904 0.716249 -0.801908
v -5.209951 0.715063 -0.501272
v -5.156607 0.676720 -0.222567
v -6.550135 0.676720 0.044153
v -6.600606 0.715063 -0.235103
v -6.957431 0.713701 -0.156539
v -6.906418 0.676720 0.112345
v -7.243139 0.677116 0.173814
v -7.293059 0.715063 -0.102568
v -0.991030 0.734704 -1.287869
v -0.941535 0.699128 -1.029276
v -1.997243 0.697942 -0.818280
v -2.048263 0.736680 -1.100409
v -2.122880 0.699967 -0.809492
v -3.549121 0.722956 -0.709736
v -3.516520 0.699523 -0.539406
v -2.166615 0.737076 -1.080735
v -3.569314 0.737471 -0.815238
v -3.666688 0.724851 -0.701513
v -4.433119 0.737205 -0.647906
v -3.630900 0.699128 -0.514535
v -5.033048 0.699128 -0.246166
v -5.084742 0.736285 -0.516252
v -3.685345 0.738261 -0.798987
v -5.209392 0.737076 -0.498351
v -5.156048 0.698733 -0.219646
v -6.549576 0.698733 0.047074
v -6.600047 0.737076 -0.232181
v -6.956872 0.735713 -0.153618
v -6.905859 0.698733 0.115266
v -7.242579 0.699128 0.176736
v -7.292500 0.737076 -0.099647
v -4.216475 0.403265 1.754410
v -1.818180 0.538411 0.286233
v -4.589123 0.673558 -0.192557
v -6.987418 0.538411 1.275620
v -4.402799 0.538411 0.780927
vt 0.964350 0.132110
vt 0.795730 0.130872
vt 0.982477 0.032448
vt 0.654250 0.067367
vt 0.651919 0.067367
vt 0.654250 0.067367
vt 0.651919 0.067367
vt 0.651919 0.061239
vt 0.661018 0.056859
vt 0.645242 0.071662
vt 0.645182 0.056603
vt 0.654250 0.061239
vt 0.654250 0.061239
vt 0.354602 0.725506
vt 0.041601 0.428985
vt 0.354784 0.428170
vt 0.040967 0.129207
vt 0.040967 0.129207
vt 0.668964 0.132463
vt 0.020935 0.035536
vt 0.667966 0.427356
vt 0.668964 0.132463
vt 0.668570 0.248757
vt 0.042235 0.728763
vt 0.042235 0.728763
vt 0.354965 0.130835
vt 0.666969 0.722249
vt 0.793847 0.719381
vt 0.793847 0.719381
vt 0.794583 0.490684
vt 0.794773 0.719360
vt 0.795730 0.130872
vt 0.709924 0.363473
vt 0.709902 0.248611
vt 0.709924 0.363473
vt 0.753386 0.365093
vt 0.667752 0.490869
vt 0.795730 0.130872
vt 0.754389 0.253700
vt 0.668964 0.132463
vt 0.668570 0.248757
vt 0.754389 0.253700
vt 0.795339 0.253636
vt 0.795339 0.253636
vt 0.753386 0.365093
vt 0.709902 0.248611
vt 0.666969 0.722249
vt 0.793847 0.719381
vt 0.667752 0.490869
vt 0.794583 0.490684
vt 0.667752 0.490869
vt 0.666969 0.722249
vt 0.794583 0.490684
vt 0.794583 0.490684
vt 0.795339 0.253636
vt 0.794583 0.490684
vt 0.962354 0.720565
vt 0.794773 0.719360
vt 0.962354 0.720565
vt 0.795725 0.490683
vt 0.795725 0.490683
vt 0.795339 0.253636
vt 0.964350 0.132110
vt 0.795725 0.490683
vt 0.964350 0.132110
vt 0.795730 0.130872
vt 0.794773 0.719360
vt 0.962354 0.720565
vt 0.486539 0.847684
vt 0.655098 0.846514
vt 0.655098 0.846514
vt 0.472722 0.849449
vt 0.655098 0.846514
vt 0.983164 0.955793
vt 0.795992 0.841018
vt 0.795960 0.762691
vt 0.795960 0.762691
vt 0.289441 0.762867
vt 0.122019 0.763219
vt 0.122019 0.763219
vt 0.038795 0.764266
vt 0.079226 0.763308
vt 0.038795 0.764266
vt 0.289345 0.847190
vt 0.289441 0.762867
vt 0.079143 0.844628
vt 0.079226 0.763308
vt 0.382651 0.847285
vt 0.019694 0.957505
vt 0.382651 0.847285
vt 0.472722 0.849449
vt 0.039034 0.847709
vt 0.486539 0.847684
vt 0.382651 0.847285
vt 0.472722 0.849449
vt 0.668914 0.760354
vt 0.668914 0.760354
vt 0.039034 0.847709
vt 0.038795 0.764266
vt 0.039034 0.847709
vt 0.486538 0.815737
vt 0.486539 0.847684
vt 0.472722 0.819933
vt 0.472722 0.819933
vt 0.795992 0.841018
vt 0.795960 0.762691
vt 0.472722 0.819933
vt 0.472779 0.763354
vt 0.472779 0.763354
vt 0.654149 0.764838
vt 0.486591 0.764195
vt 0.486591 0.764195
vt 0.122228 0.847538
vt 0.122228 0.847538
vt 0.668914 0.760354
vt 0.304287 0.763706
vt 0.304287 0.763706
vt 0.079143 0.844628
vt 0.486538 0.815737
vt 0.486538 0.815737
vt 0.289345 0.847190
vt 0.669260 0.845618
vt 0.669260 0.845618
vt 0.304197 0.845420
vt 0.304197 0.845420
vt 0.654149 0.764838
vt 0.795992 0.841018
vt 0.669260 0.845618
vt 0.486591 0.764195
vt 0.654149 0.764838
vt 0.472779 0.763354
vt 0.304287 0.763706
vt 0.122228 0.847538
vt 0.289441 0.762867
vt 0.289345 0.847190
vt 0.079143 0.844628
vt 0.122019 0.763219
vt 0.304197 0.845420
vt 0.079226 0.763308
vt 0.666969 0.722249
vt 0.651919 0.061239
vt 0.661008 0.071719
vn 0.0252 0.9910 0.1315
vn -0.9822 0.0000 0.1880
vn -0.1880 0.0000 -0.9822
vn 0.0000 -1.0000 0.0000
vn 0.1880 0.0000 0.9822
vn 0.9822 0.0000 -0.1880
vn 0.0254 0.9908 0.1327
vn -0.9546 0.2169 0.2042
vn 0.9627 0.2159 -0.1630
vn -0.1804 0.2139 -0.9601
vn 0.1910 -0.0512 0.9803
vn -0.1783 0.1339 -0.9748
vn 0.1903 -0.1339 0.9725
vn -0.9742 0.1022 0.2013
vn 0.0266 0.9899 0.1390
vn 0.1836 0.0925 0.9786
vn -0.9295 0.2894 0.2286
vn -0.1866 0.1417 -0.9722
vn -0.1925 0.3361 -0.9220
vn -0.1861 0.1319 -0.9736
vn 0.9425 0.2996 -0.1479
vn 0.9746 0.1097 -0.1952
vn -0.1272 0.7036 -0.6991
vn 0.1867 -0.1339 0.9732
vn -0.9805 -0.0012 0.1965
vn 0.9805 0.0012 -0.1966
vn 0.0260 0.9904 0.1357
vn -0.6566 0.7171 0.2337
vn 0.6102 0.7922 -0.0133
vn 0.1530 0.5837 0.7974
vn -0.9805 -0.0012 0.1966
vn -0.1900 0.1339 -0.9726
vn -0.1867 0.1339 -0.9732
vn -0.9800 -0.0015 0.1989
vn 0.9802 0.0014 -0.1980
vn -0.1843 0.1339 -0.9737
vn 0.1863 -0.1339 0.9733
vn 0.1778 -0.1339 0.9749
vn 0.9825 -0.0002 -0.1864
vn -0.1964 0.1339 -0.9713
vn 0.1944 -0.1339 0.9717
vn -0.9840 0.0014 0.1779
vn 0.1886 -0.1339 0.9729
vn -0.9840 0.0014 0.1780
vn -0.1568 0.1338 -0.9785
vn -0.1863 0.1339 -0.9733
vn -0.9840 0.0014 0.1781
vn 0.9872 -0.0039 -0.1597
vn -0.1728 0.1339 -0.9758
vn -0.9840 0.0013 0.1780
vn -0.9557 0.2122 0.2038
vn -0.9552 0.2145 0.2037
vn 0.9625 0.2168 -0.1631
vn 0.9629 0.2146 -0.1635
vn 0.9634 0.2123 -0.1637
vn -0.9739 0.1055 0.2009
vn -0.9272 0.2978 0.2270
vn -0.1924 0.3362 -0.9219
vn 0.9454 0.2907 -0.1474
vn 0.9750 0.1064 -0.1949
vn -0.1273 0.7027 -0.7000
vn -0.5700 0.7907 0.2233
vn 0.6935 0.7195 -0.0368
vn 0.1530 0.5837 0.7975
vn -0.9840 0.0013 0.1779
vn -0.9840 0.0013 0.1781
s off
f 24/1/1 23/2/1 1/3/1
f 3/4/2 8/5/2 4/6/2
f 7/7/3 6/8/3 8/5/3
f 2/9/4 8/10/4 6/11/4
f 1/12/5 4/6/5 2/13/5
f 6/8/6 1/12/6 2/13/6
f 132/14/7 133/15/7 134/16/7
f 9/17/8 13/18/8 133/15/8
f 10/19/1 3/20/1 1/3/1
f 131/21/9 14/22/9 25/23/9
f 12/24/10 16/25/10 132/14/10
f 10/19/11 14/22/11 130/26/11
f 11/27/12 42/28/12 20/29/12
f 21/30/1 18/31/1 20/29/1
f 24/1/13 52/32/13 23/2/13
f 28/33/14 35/34/14 36/35/14
f 29/36/1 21/30/1 17/37/1
f 32/38/15 38/39/15 35/34/15
f 10/19/16 32/38/16 33/40/16
f 25/23/17 33/40/17 34/41/17
f 30/42/18 31/43/18 26/44/18
f 29/36/19 36/35/19 37/45/19
f 27/46/20 34/41/20 35/34/20
f 26/44/21 32/38/21 23/2/21
f 29/36/22 38/39/22 30/42/22
f 40/47/23 46/48/23 42/28/23
f 21/30/24 39/49/24 17/37/24
f 11/27/25 39/49/25 40/47/25
f 20/29/26 41/50/26 21/30/26
f 43/51/27 46/48/27 44/52/27
f 40/47/28 43/51/28 44/52/28
f 42/28/29 45/53/29 41/50/29
f 41/50/30 43/51/30 39/49/30
f 49/54/31 58/55/31 56/56/31
f 22/57/32 47/58/32 50/59/32
f 19/60/33 49/54/33 48/61/33
f 21/30/31 51/62/31 49/54/31
f 18/31/34 48/61/34 47/58/34
f 22/57/35 53/63/35 24/1/35
f 26/44/31 52/32/31 51/62/31
f 55/64/1 58/55/1 60/65/1
f 53/63/13 59/66/13 52/32/13
f 50/59/32 54/67/32 57/68/32
f 47/58/34 55/64/34 54/67/34
f 50/59/35 60/65/35 53/63/35
f 51/62/31 59/66/31 58/55/31
f 48/61/33 56/56/33 55/64/33
f 92/69/36 114/70/36 91/71/36
f 75/72/1 68/73/1 5/74/1
f 61/75/6 85/76/6 62/77/6
f 77/78/37 101/79/37 78/80/37
f 82/81/38 104/82/38 105/83/38
f 76/84/6 100/85/6 77/78/6
f 80/86/39 104/82/39 81/87/39
f 76/84/1 71/88/1 7/89/1
f 75/72/40 94/90/40 98/91/40
f 7/89/1 83/92/1 80/86/1
f 69/93/36 91/71/36 68/73/36
f 98/91/40 117/94/40 121/95/40
f 85/76/41 109/96/41 86/97/41
f 106/98/42 128/99/42 129/100/42
f 92/69/2 112/101/2 115/102/2
f 98/91/6 116/103/6 93/104/6
f 84/105/6 108/106/6 85/76/6
f 70/107/6 95/108/6 72/109/6
f 83/92/42 105/83/42 106/98/42
f 65/110/43 90/111/43 67/112/43
f 79/113/44 101/79/44 102/114/44
f 62/77/41 86/97/41 63/115/41
f 72/109/37 96/116/37 73/117/37
f 83/92/45 103/118/45 80/86/45
f 66/119/2 90/111/2 89/120/2
f 79/113/46 99/121/46 76/84/46
f 64/122/47 86/97/47 87/123/47
f 74/124/2 96/116/2 97/125/2
f 68/73/48 88/126/48 65/110/48
f 64/122/49 84/105/49 61/75/49
f 71/88/40 97/125/40 94/90/40
f 69/93/2 89/120/2 92/69/2
f 75/72/6 93/104/6 70/107/6
f 109/96/1 107/127/1 110/128/1
f 112/101/1 113/129/1 111/130/1
f 114/70/1 112/101/1 111/130/1
f 118/131/1 117/94/1 119/132/1
f 116/103/1 121/95/1 117/94/1
f 125/133/1 123/134/1 122/135/1
f 128/99/1 126/136/1 129/100/1
f 106/98/45 126/136/45 103/118/45
f 87/123/47 109/96/47 110/128/47
f 99/121/6 123/134/6 100/85/6
f 87/123/49 107/127/49 84/105/49
f 100/85/37 124/137/37 101/79/37
f 93/104/6 118/131/6 95/108/6
f 102/114/50 124/137/50 125/133/50
f 95/108/37 119/132/37 96/116/37
f 88/126/43 113/129/43 90/111/43
f 102/114/46 122/135/46 99/121/46
f 97/125/2 119/132/2 120/138/2
f 89/120/2 113/129/2 112/101/2
f 103/118/39 127/139/39 104/82/39
f 94/90/40 120/138/40 117/94/40
f 91/71/48 111/130/48 88/126/48
f 105/83/38 127/139/38 128/99/38
f 130/26/7 133/15/7 13/18/7
f 14/22/7 134/16/7 130/26/7
f 15/140/7 134/16/7 131/21/7
f 5/74/1 61/75/1 22/57/1
f 61/75/1 62/77/1 22/57/1
f 63/115/1 65/110/1 11/27/1
f 65/110/1 67/112/1 11/27/1
f 67/112/1 66/119/1 72/109/1
f 66/119/1 70/107/1 72/109/1
f 67/112/1 72/109/1 11/27/1
f 73/117/1 74/124/1 77/78/1
f 74/124/1 76/84/1 77/78/1
f 72/109/1 73/117/1 11/27/1
f 78/80/1 80/86/1 81/87/1
f 73/117/1 77/78/1 11/27/1
f 77/78/1 78/80/1 12/24/1
f 78/80/1 81/87/1 12/24/1
f 11/27/1 77/78/1 12/24/1
f 82/81/1 7/89/1 3/20/1
f 82/81/1 3/20/1 12/24/1
f 3/20/1 9/17/1 12/24/1
f 81/87/1 82/81/1 12/24/1
f 11/27/1 20/29/1 63/115/1
f 20/29/1 18/31/1 62/77/1
f 63/115/1 20/29/1 62/77/1
f 18/31/1 22/57/1 62/77/1
f 23/2/1 10/19/1 1/3/1
f 5/74/1 22/57/1 1/3/1
f 22/57/1 24/1/1 1/3/1
f 3/4/2 7/7/2 8/5/2
f 7/7/3 5/141/3 6/8/3
f 2/9/4 4/142/4 8/10/4
f 1/12/5 3/4/5 4/6/5
f 6/8/6 5/141/6 1/12/6
f 132/14/7 16/25/7 133/15/7
f 16/25/51 12/24/51 133/15/51
f 12/24/52 9/17/52 133/15/52
f 10/19/1 9/17/1 3/20/1
f 14/22/53 10/19/53 25/23/53
f 25/23/54 17/37/54 131/21/54
f 17/37/54 11/27/54 131/21/54
f 11/27/55 15/140/55 131/21/55
f 15/140/10 11/27/10 132/14/10
f 11/27/10 12/24/10 132/14/10
f 13/18/11 9/17/11 130/26/11
f 9/17/11 10/19/11 130/26/11
f 11/27/12 40/47/12 42/28/12
f 21/30/1 19/60/1 18/31/1
f 24/1/13 53/63/13 52/32/13
f 28/33/56 27/46/56 35/34/56
f 17/37/1 25/23/1 28/33/1
f 25/23/1 27/46/1 28/33/1
f 30/42/1 26/44/1 29/36/1
f 26/44/1 21/30/1 29/36/1
f 17/37/1 28/33/1 29/36/1
f 34/41/15 33/40/15 35/34/15
f 33/40/15 32/38/15 35/34/15
f 32/38/15 31/43/15 38/39/15
f 38/39/15 37/45/15 36/35/15
f 38/39/15 36/35/15 35/34/15
f 10/19/16 23/2/16 32/38/16
f 25/23/57 10/19/57 33/40/57
f 30/42/18 38/39/18 31/43/18
f 29/36/58 28/33/58 36/35/58
f 27/46/20 25/23/20 34/41/20
f 26/44/59 31/43/59 32/38/59
f 29/36/60 37/45/60 38/39/60
f 40/47/61 44/52/61 46/48/61
f 21/30/24 41/50/24 39/49/24
f 11/27/25 17/37/25 39/49/25
f 20/29/26 42/28/26 41/50/26
f 43/51/27 45/53/27 46/48/27
f 40/47/62 39/49/62 43/51/62
f 42/28/63 46/48/63 45/53/63
f 41/50/64 45/53/64 43/51/64
f 49/54/31 51/62/31 58/55/31
f 22/57/32 18/31/32 47/58/32
f 19/60/33 21/30/33 49/54/33
f 21/30/31 26/44/31 51/62/31
f 18/31/34 19/60/34 48/61/34
f 22/57/35 50/59/35 53/63/35
f 26/44/31 23/2/31 52/32/31
f 55/64/1 56/56/1 58/55/1
f 58/55/1 59/66/1 60/65/1
f 60/65/1 57/68/1 55/64/1
f 57/68/1 54/67/1 55/64/1
f 53/63/13 60/65/13 59/66/13
f 50/59/32 47/58/32 54/67/32
f 47/58/34 48/61/34 55/64/34
f 50/59/35 57/68/35 60/65/35
f 51/62/31 52/32/31 59/66/31
f 48/61/33 49/54/33 56/56/33
f 92/69/36 115/102/36 114/70/36
f 5/74/1 7/89/1 75/72/1
f 7/89/1 71/88/1 75/72/1
f 75/72/1 70/107/1 69/93/1
f 70/107/1 66/119/1 69/93/1
f 64/122/1 61/75/1 5/74/1
f 65/110/1 63/115/1 64/122/1
f 68/73/1 65/110/1 64/122/1
f 68/73/1 64/122/1 5/74/1
f 75/72/1 69/93/1 68/73/1
f 61/75/6 84/105/6 85/76/6
f 77/78/37 100/85/37 101/79/37
f 82/81/38 81/87/38 104/82/38
f 76/84/6 99/121/6 100/85/6
f 80/86/39 103/118/39 104/82/39
f 80/86/1 78/80/1 79/113/1
f 76/84/1 74/124/1 71/88/1
f 7/89/1 80/86/1 79/113/1
f 79/113/1 76/84/1 7/89/1
f 75/72/40 71/88/40 94/90/40
f 7/89/1 82/81/1 83/92/1
f 69/93/36 92/69/36 91/71/36
f 98/91/40 94/90/40 117/94/40
f 85/76/41 108/106/41 109/96/41
f 106/98/65 105/83/65 128/99/65
f 92/69/2 89/120/2 112/101/2
f 98/91/6 121/95/6 116/103/6
f 84/105/6 107/127/6 108/106/6
f 70/107/6 93/104/6 95/108/6
f 83/92/42 82/81/42 105/83/42
f 65/110/43 88/126/43 90/111/43
f 79/113/44 78/80/44 101/79/44
f 62/77/41 85/76/41 86/97/41
f 72/109/37 95/108/37 96/116/37
f 83/92/45 106/98/45 103/118/45
f 66/119/2 67/112/2 90/111/2
f 79/113/46 102/114/46 99/121/46
f 64/122/47 63/115/47 86/97/47
f 74/124/2 73/117/2 96/116/2
f 68/73/48 91/71/48 88/126/48
f 64/122/49 87/123/49 84/105/49
f 71/88/40 74/124/40 97/125/40
f 69/93/2 66/119/2 89/120/2
f 75/72/6 98/91/6 93/104/6
f 109/96/1 108/106/1 107/127/1
f 114/70/1 115/102/1 112/101/1
f 116/103/1 117/94/1 118/131/1
f 117/94/1 120/138/1 119/132/1
f 125/133/1 124/137/1 123/134/1
f 128/99/1 127/139/1 126/136/1
f 106/98/45 129/100/45 126/136/45
f 87/123/66 86/97/66 109/96/66
f 99/121/6 122/135/6 123/134/6
f 87/123/49 110/128/49 107/127/49
f 100/85/37 123/134/37 124/137/37
f 93/104/6 116/103/6 118/131/6
f 102/114/44 101/79/44 124/137/44
f 95/108/37 118/131/37 119/132/37
f 88/126/43 111/130/43 113/129/43
f 102/114/46 125/133/46 122/135/46
f 97/125/2 96/116/2 119/132/2
f 89/120/2 90/111/2 113/129/2
f 103/118/39 126/136/39 127/139/39
f 94/90/40 97/125/40 120/138/40
f 91/71/48 114/70/48 111/130/48
f 105/83/38 104/82/38 127/139/38
f 130/26/7 134/16/7 133/15/7
f 14/22/7 131/21/7 134/16/7
f 15/140/7 132/14/7 134/16/7
l 80 76
