# Blender v2.80 (sub 75) OBJ File: 'desk.blend'
# www.blender.org
o monitors_monitors-geometry
v -13.983059 0.011263 -5.029391
v -13.983059 0.276469 -5.029391
v -12.130837 0.011263 -5.783894
v -12.130837 0.276469 -5.783894
v -14.165606 0.011263 -2.795463
v -14.165606 0.276469 -2.795463
v -10.439286 0.011263 -4.313379
v -10.439286 0.276469 -4.313379
v -12.031977 0.276469 -5.541203
v -13.884199 0.276469 -4.786700
v -13.983059 3.354950 -5.029391
v -12.130837 3.354950 -5.783894
v -13.884199 3.354950 -4.786700
v -12.031977 3.354950 -5.541203
v -13.885364 0.011263 -4.789559
v -12.032006 0.011263 -5.541275
v -20.120766 0.427629 -2.231965
v -20.120766 9.142078 -2.231965
v -5.399077 0.427629 -8.228844
v -5.399077 9.142078 -8.228844
v -19.691292 0.800169 -2.033122
v -19.691292 8.858423 -2.033122
v -5.567364 0.800169 -7.786504
v -5.567364 8.858423 -7.786504
v -5.268484 9.142078 -7.908253
v -5.268484 0.427629 -7.908253
v -19.990171 0.427629 -1.911374
v -19.990171 9.142078 -1.911374
v -5.268484 9.142078 -7.908253
v -5.268484 0.427629 -7.908253
v -19.990171 0.427629 -1.911374
v -19.990171 9.142078 -1.911374
v -5.584847 8.858423 -7.829423
v -5.584847 0.800169 -7.829423
v -19.708776 0.800169 -2.076041
v -19.708776 8.858423 -2.076041
v -5.584847 4.829296 -7.829423
v -12.646811 0.800169 -4.952733
v -12.646811 8.858423 -4.952733
v -19.708776 4.829296 -2.076041
v -5.584847 2.814732 -7.829423
v -9.115829 0.800169 -6.391078
v -16.177794 8.858423 -3.514387
v -19.708776 2.814732 -2.076041
v -5.584847 6.843859 -7.829423
v -16.177794 0.800169 -3.514387
v -9.115829 8.858423 -6.391078
v -19.708776 6.843859 -2.076041
v 2.358009 0.011263 -6.712723
v 2.358009 0.276469 -6.712723
v 4.295946 0.011263 -6.218356
v 4.295946 0.276469 -6.218356
v 0.883230 0.011263 -5.024888
v 0.883230 0.276469 -5.024888
v 4.781996 0.011263 -4.030316
v 4.781996 0.276469 -4.030316
v 4.231173 0.276469 -5.964434
v 2.293235 0.276469 -6.458800
v 2.358009 3.354950 -6.712723
v 4.295946 3.354950 -6.218356
v 2.293235 3.354950 -6.458800
v 4.231173 3.354950 -5.964434
v 2.293998 0.011263 -6.461792
v 4.231192 0.011263 -5.964509
v -4.240426 0.427629 -8.111893
v -4.240426 9.142078 -8.111893
v 11.162542 0.427629 -4.182609
v 11.162542 9.142078 -4.182609
v -4.013282 0.800169 -7.696693
v -4.013282 8.858423 -7.696693
v 10.764263 0.800169 -3.926953
v 10.764263 8.858423 -3.926953
v 11.076977 9.142078 -3.847181
v 11.076977 0.427629 -3.847181
v -4.325993 0.427629 -7.776465
v -4.325993 9.142078 -7.776465
v 11.076977 9.142078 -3.847181
v 11.076977 0.427629 -3.847181
v -4.325993 0.427629 -7.776465
v -4.325993 9.142078 -7.776465
v 10.775721 8.858423 -3.971859
v 10.775721 0.800169 -3.971859
v -4.001827 0.800169 -7.741599
v -4.001827 8.858423 -7.741599
v 10.775721 4.829296 -3.971859
v 3.386946 0.800169 -5.856729
v 3.386946 8.858423 -5.856729
v -4.001827 4.829296 -7.741599
v 10.775721 2.814732 -3.971859
v 7.081331 0.800169 -4.914294
v -0.307441 8.858423 -6.799164
v -4.001827 2.814732 -7.741599
v 10.775721 6.843859 -3.971859
v -0.307441 0.800169 -6.799164
v 7.081331 8.858423 -4.914294
v -4.001827 6.843859 -7.741599
vt 0.955344 0.353261
vt 0.978144 0.383694
vt 0.955344 0.383694
vt 0.964655 0.414128
vt 0.961182 0.383695
vt 0.964655 0.383695
vt 0.897172 0.828614
vt 0.927969 0.779382
vt 0.927969 0.828614
vt 0.866374 0.383694
vt 0.896861 0.353261
vt 0.896897 0.383694
vt 0.901206 0.844011
vt 0.927969 0.889840
vt 0.901159 0.874444
vt 0.930383 0.782785
vt 0.957146 0.736956
vt 0.957145 0.798181
vt 0.899936 0.920273
vt 0.895901 0.889840
vt 0.899936 0.889840
vt 0.978144 0.000000
vt 0.978144 0.353261
vt 0.899938 0.000000
vt 0.899938 0.353262
vt 0.955344 0.000000
vt 0.930579 0.353261
vt 0.930579 0.000000
vt 0.961181 0.767389
vt 0.961181 0.414128
vt 0.899938 0.383695
vt 0.895900 0.920273
vt 0.866374 0.889840
vt 0.895901 0.889840
vt 0.866374 1.000000
vt 0.685162 0.000000
vt 0.866374 0.000000
vt 0.993355 0.999999
vt 0.988765 0.000000
vt 0.993355 0.000000
vt 1.000000 0.924700
vt 0.999456 0.693525
vt 0.999456 0.462350
vt 0.997419 1.000000
vt 0.993355 0.000000
vt 0.997419 0.000000
vt 0.964655 0.867465
vt 0.969986 0.625580
vt 0.969986 0.867465
vt 0.969986 0.383695
vt 0.964655 0.625580
vt 0.964655 0.383695
vt 0.000000 0.000000
vt 0.000000 0.000000
vt 0.000000 0.000000
vt 0.000000 0.000000
vt 0.000000 0.000000
vt 0.000000 0.000000
vt 0.000000 0.000000
vt 0.000000 0.000000
vt 0.681166 0.042750
vt 0.685162 0.999999
vt 0.681166 0.967449
vt 0.492322 0.042750
vt 0.685162 0.000000
vt 0.492322 0.967449
vt 0.488326 0.999999
vt 0.488326 0.000000
vt 0.999456 0.924700
vt 0.998841 0.693525
vt 0.998841 0.462350
vt 0.976030 0.847822
vt 0.975317 0.789806
vt 0.975317 0.731790
vt 0.977458 0.615758
vt 0.976744 0.557742
vt 0.976744 0.499727
vt 0.899938 0.353261
vt 0.930579 0.383694
vt 0.899938 0.383694
vt 0.898611 0.414128
vt 0.894599 0.383695
vt 0.898611 0.383695
vt 0.866374 0.828614
vt 0.897172 0.767389
vt 0.897172 0.828614
vt 0.898611 0.767391
vt 0.926357 0.736956
vt 0.926404 0.767389
vt 0.870408 0.844011
vt 0.897172 0.889840
vt 0.870362 0.874444
vt 0.954731 0.844011
vt 0.927969 0.889840
vt 0.927969 0.828614
vt 0.903971 0.889840
vt 0.899936 0.920273
vt 0.899936 0.889840
vt 0.930579 0.000000
vt 0.930579 0.353261
vt 0.930383 0.383695
vt 0.930383 0.736956
vt 0.961181 0.383695
vt 0.930383 0.736956
vt 0.930383 0.383695
vt 0.894597 0.767389
vt 0.894597 0.414128
vt 0.930383 0.767389
vt 0.866374 0.383695
vt 0.488326 0.999999
vt 0.244783 0.000000
vt 0.488326 0.000000
vt 0.988765 0.999999
vt 0.983462 0.000000
vt 0.988765 0.000000
vt 0.998131 0.924700
vt 0.997419 0.693525
vt 0.997419 0.462350
vt 0.983462 1.000000
vt 0.978144 0.000000
vt 0.983462 0.000000
vt 0.975317 0.383695
vt 0.969986 0.625580
vt 0.969986 0.383695
vt 0.975317 0.625580
vt 0.969986 0.867465
vt 0.969986 0.625580
vt 0.000000 0.000000
vt 0.000000 0.000000
vt 0.000000 0.000000
vt 0.000000 0.000000
vt 0.000000 0.000000
vt 0.000000 0.000000
vt 0.000000 0.000000
vt 0.000000 0.000000
vt 0.004970 0.957250
vt 0.004970 0.032550
vt 0.244783 0.999999
vt 0.000000 0.999999
vt 0.244783 0.000000
vt 0.239813 0.032550
vt 0.239814 0.957250
vt 0.998841 0.231175
vt 0.998841 0.462350
vt 0.998131 0.000000
vt 0.976744 0.441711
vt 0.976744 0.499727
vt 0.976030 0.383695
vt 0.975317 0.557742
vt 0.975317 0.499726
vt 0.976030 0.615758
vt 0.897172 0.779382
vt 0.866374 0.353261
vt 0.897172 0.874444
vt 0.897172 0.844011
vt 0.930383 0.752352
vt 0.895901 0.920273
vt 0.955344 0.000000
vt 0.896861 0.000000
vt 0.955344 0.353261
vt 0.964655 0.767389
vt 0.866374 0.920273
vt 0.685162 0.999999
vt 0.988765 0.999999
vt 0.999456 0.000000
vt 1.000000 0.000000
vt 0.999456 0.231175
vt 0.999456 0.924700
vt 0.993355 1.000000
vt 0.964655 0.625580
vt 0.969986 0.625580
vt 0.998841 0.000000
vt 0.999456 0.000000
vt 0.998841 0.231175
vt 0.998841 0.924700
vt 0.975317 0.615758
vt 0.976030 0.615758
vt 0.975317 0.673774
vt 0.975317 0.847822
vt 0.976744 0.383695
vt 0.977458 0.383695
vt 0.976744 0.441711
vt 0.976744 0.615758
vt 0.866374 0.767389
vt 0.898611 0.736958
vt 0.866374 0.874444
vt 0.866374 0.844011
vt 0.954731 0.874444
vt 0.903971 0.920273
vt 0.899938 0.000000
vt 0.926357 0.383695
vt 0.961181 0.736956
vt 0.898611 0.767389
vt 0.866374 0.414128
vt 0.244783 0.999999
vt 0.983463 0.999999
vt 0.997419 0.000000
vt 0.998131 0.000000
vt 0.997419 0.231175
vt 0.997419 0.924700
vt 0.978144 0.999999
vt 0.975317 0.625580
vt 0.975317 0.867465
vt 0.998841 0.924700
vt 0.998131 0.924700
vt 0.998841 0.693525
vt 0.998841 0.000000
vt 0.976744 0.615758
vt 0.976030 0.615758
vt 0.976744 0.557742
vt 0.976744 0.383695
vt 0.975317 0.383695
vt 0.976030 0.383695
vt 0.975317 0.441711
vt 0.975317 0.615758
vn -0.3773 0.0000 -0.9261
vn 0.9261 0.0000 -0.3773
vn 0.3773 0.0000 0.9261
vn -0.9903 0.0058 -0.1392
vn 0.0000 -1.0000 -0.0000
vn 0.0000 1.0000 0.0000
vn -0.9261 0.0000 0.3772
vn -0.9261 0.0000 0.3773
vn 0.6106 0.0002 -0.7920
vn 0.0000 0.0000 1.0000
vn 0.3772 0.0000 0.9261
vn 0.2472 0.0000 -0.9690
vn 0.9690 0.0000 0.2472
vn -0.2472 0.0000 0.9690
vn -0.7136 0.0059 -0.7006
vn -0.9690 0.0000 -0.2472
vn 0.9618 0.0001 -0.2739
vn 0.0000 -1.0000 -0.0001
vn -0.9902 0.0000 -0.1399
vn 0.6105 0.0000 -0.7920
vn -0.7130 0.0000 -0.7011
vn 0.9618 0.0000 -0.2739
vn 0.0000 -1.0000 0.0001
s off
f 2/1/1 3/2/1 1/3/1
f 4/4/2 16/5/2 3/6/2
f 8/7/3 5/8/3 7/9/3
f 5/10/4 10/11/4 15/12/4
f 16/13/5 5/14/5 15/15/5
f 9/16/6 6/17/6 8/18/6
f 14/19/6 11/20/6 13/21/6
f 2/1/1 12/22/1 4/23/1
f 10/11/7 11/24/7 2/25/7
f 9/26/3 13/27/3 10/28/3
f 4/4/2 14/29/2 9/30/2
f 15/12/8 2/25/8 1/31/8
f 9/32/9 7/33/9 16/34/9
f 18/35/1 19/36/1 17/37/1
f 20/38/2 26/39/2 19/40/2
f 24/41/7 45/42/7 37/43/7
f 28/44/8 17/45/8 27/46/8
f 26/47/5 17/48/5 19/49/5
f 20/50/6 28/51/6 25/52/6
f 29/53/10 26/54/10 25/55/10
f 30/56/10 27/57/10 26/54/10
f 32/58/10 25/55/10 28/59/10
f 31/60/10 28/59/10 27/57/10
f 23/61/3 29/62/3 24/63/3
f 21/64/3 30/65/3 23/61/3
f 22/66/11 29/62/11 32/67/11
f 21/64/11 32/67/11 31/68/11
f 21/69/2 44/70/2 40/71/2
f 23/72/6 42/73/6 38/74/6
f 22/75/5 43/76/5 39/77/5
f 50/78/12 51/79/12 49/80/12
f 52/81/13 64/82/13 51/83/13
f 56/84/14 53/85/14 55/86/14
f 53/87/15 58/88/15 63/89/15
f 64/90/5 53/91/5 63/92/5
f 57/93/6 54/94/6 56/95/6
f 61/96/6 60/97/6 59/98/6
f 50/78/12 60/99/12 52/100/12
f 58/88/16 59/101/16 50/102/16
f 57/103/14 61/104/14 58/105/14
f 52/81/13 62/106/13 57/107/13
f 63/89/16 50/102/16 49/108/16
f 57/107/17 55/109/17 64/82/17
f 66/110/12 67/111/12 65/112/12
f 68/113/13 74/114/13 67/115/13
f 72/116/16 93/117/16 85/118/16
f 76/119/16 65/120/16 75/121/16
f 74/122/5 65/123/5 67/124/5
f 68/125/6 76/126/6 73/127/6
f 77/128/10 74/129/10 73/130/10
f 78/131/10 75/132/10 74/129/10
f 80/133/10 73/130/10 76/134/10
f 79/135/10 76/134/10 75/132/10
f 71/136/14 77/128/14 72/137/14
f 71/136/14 79/138/14 78/139/14
f 72/137/14 80/140/14 70/141/14
f 69/142/14 80/140/14 79/138/14
f 92/143/13 88/144/13 69/145/13
f 90/146/6 86/147/6 71/148/6
f 91/149/18 87/150/18 70/151/18
f 2/1/1 4/23/1 3/2/1
f 4/4/2 9/30/2 16/5/2
f 8/7/3 6/152/3 5/8/3
f 5/10/19 6/153/19 10/11/19
f 1/154/5 3/155/5 15/15/5
f 3/155/5 16/13/5 15/15/5
f 16/13/5 7/9/5 5/14/5
f 9/16/6 10/156/6 6/17/6
f 14/19/6 12/157/6 11/20/6
f 2/1/1 11/158/1 12/22/1
f 10/11/7 13/159/7 11/24/7
f 9/26/3 14/160/3 13/27/3
f 4/4/2 12/161/2 14/29/2
f 15/12/8 10/11/8 2/25/8
f 9/32/20 8/162/20 7/33/20
f 18/35/1 20/163/1 19/36/1
f 20/38/2 25/164/2 26/39/2
f 34/165/7 23/166/7 41/167/7
f 23/166/8 24/41/8 37/43/8
f 41/167/7 23/166/7 37/43/7
f 24/41/7 33/168/7 45/42/7
f 28/44/8 18/169/8 17/45/8
f 26/47/5 27/170/5 17/48/5
f 20/50/6 18/171/6 28/51/6
f 29/53/10 30/56/10 26/54/10
f 30/56/10 31/60/10 27/57/10
f 32/58/10 29/53/10 25/55/10
f 31/60/10 32/58/10 28/59/10
f 23/61/3 30/65/3 29/62/3
f 21/64/3 31/68/3 30/65/3
f 22/66/3 24/63/3 29/62/3
f 21/64/3 22/66/3 32/67/3
f 36/172/2 22/173/2 48/174/2
f 22/173/2 21/69/2 40/71/2
f 48/174/2 22/173/2 40/71/2
f 21/69/2 35/175/2 44/70/2
f 35/176/6 21/177/6 46/178/6
f 21/177/6 23/72/6 38/74/6
f 46/178/6 21/177/6 38/74/6
f 23/72/6 34/179/6 42/73/6
f 33/180/5 24/181/5 47/182/5
f 24/181/5 22/75/5 39/77/5
f 47/182/5 24/181/5 39/77/5
f 22/75/5 36/183/5 43/76/5
f 50/78/12 52/100/12 51/79/12
f 52/81/13 57/107/13 64/82/13
f 56/84/14 54/184/14 53/85/14
f 53/87/21 54/185/21 58/88/21
f 49/186/5 51/187/5 63/92/5
f 51/187/5 64/90/5 63/92/5
f 64/90/5 55/86/5 53/91/5
f 57/93/6 58/188/6 54/94/6
f 61/96/6 62/189/6 60/97/6
f 50/78/12 59/190/12 60/99/12
f 58/88/16 61/191/16 59/101/16
f 57/103/14 62/192/14 61/104/14
f 52/81/13 60/193/13 62/106/13
f 63/89/16 58/88/16 50/102/16
f 57/107/22 56/194/22 55/109/22
f 66/110/12 68/195/12 67/111/12
f 68/113/13 73/196/13 74/114/13
f 82/197/16 71/198/16 89/199/16
f 71/198/16 72/116/16 85/118/16
f 89/199/16 71/198/16 85/118/16
f 72/116/16 81/200/16 93/117/16
f 76/119/16 66/201/16 65/120/16
f 74/122/5 75/202/5 65/123/5
f 68/125/6 66/203/6 76/126/6
f 77/128/10 78/131/10 74/129/10
f 78/131/10 79/135/10 75/132/10
f 80/133/10 77/128/10 73/130/10
f 79/135/10 80/133/10 76/134/10
f 71/136/14 78/139/14 77/128/14
f 71/136/14 69/142/14 79/138/14
f 72/137/14 77/128/14 80/140/14
f 69/142/14 70/141/14 80/140/14
f 84/204/13 70/205/13 96/206/13
f 70/205/13 69/145/13 88/144/13
f 96/206/13 70/205/13 88/144/13
f 69/145/13 83/207/13 92/143/13
f 83/208/6 69/209/6 94/210/6
f 69/209/6 71/148/6 86/147/6
f 94/210/6 69/209/6 86/147/6
f 71/148/6 82/211/6 90/146/6
f 81/212/5 72/213/5 95/214/5
f 72/213/5 70/151/5 87/150/5
f 95/214/23 72/213/23 87/150/23
f 70/151/5 84/215/5 91/149/5
