# Blender v2.80 (sub 75) OBJ File: 'desk.blend'
# www.blender.org
o wallpaper-left_wallpaper-left-geometry
v -5.584847 8.858423 -7.829423
v -5.584847 0.800169 -7.829423
v -19.708776 0.800169 -2.076041
v -19.708776 8.858423 -2.076041
v -5.584847 4.829296 -7.829423
v -12.646811 0.800169 -4.952733
v -12.646811 8.858423 -4.952733
v -19.708776 4.829296 -2.076041
v -12.646811 4.829296 -4.952733
v -5.584847 2.814732 -7.829423
v -9.115829 0.800169 -6.391078
v -16.177794 8.858423 -3.514387
v -19.708776 2.814732 -2.076041
v -5.584847 6.843859 -7.829423
v -16.177794 0.800169 -3.514387
v -9.115829 8.858423 -6.391078
v -19.708776 6.843859 -2.076041
v -16.177794 4.829296 -3.514387
v -9.115829 4.829296 -6.391078
v -12.646811 2.814732 -4.952733
v -12.646811 6.843859 -4.952733
v -9.115829 6.843859 -6.391078
v -9.115829 2.814732 -6.391078
v -16.177794 2.814732 -3.514387
v -16.177794 6.843859 -3.514387
vt 0.250231 0.991785
vt 0.002310 0.748292
vt 0.250752 0.748695
vt 0.251272 0.505606
vt 0.003694 0.262720
vt 0.251792 0.262516
vt 0.747812 0.505805
vt 0.499891 0.262313
vt 0.747989 0.262109
vt 0.747459 0.993196
vt 0.499194 0.749098
vt 0.747636 0.749501
vt 0.499542 0.505705
vt 0.996078 0.749903
vt 0.996083 0.505904
vt 0.996073 0.993902
vt 0.500239 0.018920
vt 0.748166 0.018413
vt 0.996087 0.261905
vt 0.996092 0.017906
vt 0.004386 0.019934
vt 0.252313 0.019427
vt 0.003002 0.505506
vt 0.498845 0.992490
vt 0.001617 0.991079
vn 0.3773 0.0000 0.9261
s off
f 12/1/1 17/2/1 25/3/1
f 18/4/1 13/5/1 24/6/1
f 19/7/1 20/8/1 23/9/1
f 16/10/1 21/11/1 22/12/1
f 22/12/1 9/13/1 19/7/1
f 14/14/1 19/7/1 5/15/1
f 1/16/1 22/12/1 14/14/1
f 23/9/1 6/17/1 11/18/1
f 10/19/1 11/18/1 2/20/1
f 5/15/1 23/9/1 10/19/1
f 24/6/1 3/21/1 15/22/1
f 20/8/1 15/22/1 6/17/1
f 9/13/1 24/6/1 20/8/1
f 25/3/1 8/23/1 18/4/1
f 21/11/1 18/4/1 9/13/1
f 7/24/1 25/3/1 21/11/1
f 12/1/1 4/25/1 17/2/1
f 18/4/1 8/23/1 13/5/1
f 19/7/1 9/13/1 20/8/1
f 16/10/1 7/24/1 21/11/1
f 22/12/1 21/11/1 9/13/1
f 14/14/1 22/12/1 19/7/1
f 1/16/1 16/10/1 22/12/1
f 23/9/1 20/8/1 6/17/1
f 10/19/1 23/9/1 11/18/1
f 5/15/1 19/7/1 23/9/1
f 24/6/1 13/5/1 3/21/1
f 20/8/1 24/6/1 15/22/1
f 9/13/1 18/4/1 24/6/1
f 25/3/1 17/2/1 8/23/1
f 21/11/1 25/3/1 18/4/1
f 7/24/1 12/1/1 25/3/1
